<svg width="42" height="42" viewBox="0 0 42 42" fill="none" xmlns="http://www.w3.org/2000/svg">
<rect x="0.5" y="0.5" width="41" height="41" rx="20.5" stroke="black"/>
<path d="M23.7409 26.8182V15.1819H25.15V25.5682H30.5591V26.8182H23.7409Z" fill="black"/>
<path d="M15.0318 26.8182H11.4409V15.1819H15.1909C16.3197 15.1819 17.2856 15.4148 18.0886 15.8807C18.8917 16.3429 19.5072 17.0076 19.9352 17.8751C20.3633 18.7387 20.5773 19.7728 20.5773 20.9773C20.5773 22.1895 20.3614 23.233 19.9296 24.108C19.4977 24.9792 18.8689 25.6497 18.0432 26.1194C17.2174 26.5853 16.2136 26.8182 15.0318 26.8182ZM12.85 25.5682H14.9409C15.903 25.5682 16.7004 25.3826 17.333 25.0114C17.9655 24.6402 18.4371 24.1118 18.7477 23.4262C19.0583 22.7406 19.2136 21.9243 19.2136 20.9773C19.2136 20.0379 19.0602 19.2292 18.7534 18.5512C18.4466 17.8694 17.9883 17.3467 17.3784 16.983C16.7686 16.6156 16.0091 16.4319 15.1 16.4319H12.85V25.5682Z" fill="black"/>
</svg>
